<?xml version="1.0" encoding="iso-8859-1"?>
<!-- Generator: Adobe Illustrator 19.0.0, SVG Export Plug-In . SVG Version: 6.00 Build 0)  -->
<svg version="1.1" id="Layer_1" xmlns="http://www.w3.org/2000/svg" xmlns:xlink="http://www.w3.org/1999/xlink" x="0px" y="0px"
	 viewBox="0 0 460 460" style="enable-background:new 0 0 460 460;" xml:space="preserve">
<g id="XMLID_799_">
	<path id="XMLID_800_" style="fill:#084B63;" d="M230,0C102.974,0,0,102.975,0,230c0,108.511,75.151,199.457,176.241,223.667
		l280.588-261.838C438.644,82.973,344.02,0,230,0z"/>
	<path id="XMLID_74_" style="fill:#06384A;" d="M73.787,351.213l102.454,102.454C193.489,457.798,211.486,460,230,460
		c127.025,0,230-102.975,230-230c0-13.006-1.097-25.754-3.171-38.171L365,100L73.787,351.213z"/>
	<polygon id="XMLID_73_" style="fill:#A3DDE9;" points="230,100 95,100 95,300 162.5,310 230,300 240,200 	"/>
	<path id="XMLID_72_" style="fill:#82C8DB;" d="M65,320v10c0,16.569,13.431,30,30,30h135l10-20l-10-20l-82.5-10L65,320z"/>
	<polygon id="XMLID_70_" style="fill:#419EBE;" points="170,340 170,310 230,320 230,340 	"/>
	<polygon id="XMLID_69_" style="fill:#FFFFFF;" points="95,300 65,320 240,320 230,300 	"/>
	<path id="XMLID_67_" style="fill:#084B63;" d="M115,280V120h230v160H115z"/>
	<polygon id="XMLID_66_" style="fill:#62B3CD;" points="230,100 230,300 297.5,310 365,300 365,100 	"/>
	<path id="XMLID_64_" style="fill:#06384A;" d="M230,280V120h115v160H230z"/>
	<path id="XMLID_63_" style="fill:#62B3CD;" d="M395,320v10c0,16.569-13.431,30-30,30H230v-40l82.5-10L395,320z"/>
	<polygon id="XMLID_62_" style="fill:#146A8A;" points="230,340 230,320 290,310 290,340 	"/>
	<polygon id="XMLID_61_" style="fill:#A3DDE9;" points="365,300 230,300 230,320 395,320 	"/>
	<polygon id="XMLID_801_" style="fill:#A3DDE9;" points="290,250 270,250 260,180 280,170 300,180 	"/>
	<rect id="XMLID_802_" x="260" y="160" style="fill:#2089B0;" width="40" height="20"/>
	<polygon id="XMLID_803_" style="fill:#FFFFFF;" points="170,250 150,250 150,230 165,220 180,230 	"/>
	<rect id="XMLID_804_" x="150" y="210" style="fill:#419EBE;" width="30" height="20"/>
	<polygon id="XMLID_805_" style="fill:#D1EEF4;" points="190,250 170,250 170,220 185,210 200,220 	"/>
	<rect id="XMLID_806_" x="170" y="200" style="fill:#2089B0;" width="30" height="20"/>
	<polygon id="XMLID_807_" style="fill:#FFFFFF;" points="210,250 190,250 190,210 205,200 220,210 	"/>
	<rect id="XMLID_808_" x="190" y="190" style="fill:#419EBE;" width="30" height="20"/>
	<polygon id="XMLID_809_" style="fill:#D1EEF4;" points="230,250 210,250 210,200 225,190 240,200 	"/>
	<rect id="XMLID_810_" x="210" y="180" style="fill:#2089B0;" width="30" height="20"/>
	<polygon id="XMLID_811_" style="fill:#A3DDE9;" points="250,250 230,250 230,190 245,180 260,190 	"/>
	<rect id="XMLID_812_" x="230" y="170" style="fill:#2089B0;" width="30" height="20"/>
	<polygon id="XMLID_813_" style="fill:#82C8DB;" points="270,250 250,250 250,170 260,160 270,170 	"/>
	<rect id="XMLID_814_" x="250" y="150" style="fill:#146A8A;" width="20" height="20"/>
	<polygon id="XMLID_815_" style="fill:#82C8DB;" points="310,250 290,250 290,170 300,160 310,170 	"/>
	<rect id="XMLID_816_" x="290" y="150" style="fill:#146A8A;" width="20" height="20"/>
</g>
<g>
</g>
<g>
</g>
<g>
</g>
<g>
</g>
<g>
</g>
<g>
</g>
<g>
</g>
<g>
</g>
<g>
</g>
<g>
</g>
<g>
</g>
<g>
</g>
<g>
</g>
<g>
</g>
<g>
</g>
</svg>
