<?xml version="1.0" encoding="iso-8859-1"?>
<!-- Generator: Adobe Illustrator 19.0.0, SVG Export Plug-In . SVG Version: 6.00 Build 0)  -->
<svg version="1.1" id="Capa_1" xmlns="http://www.w3.org/2000/svg" xmlns:xlink="http://www.w3.org/1999/xlink" x="0px" y="0px"
	 viewBox="0 0 512 512" style="enable-background:new 0 0 512 512;" xml:space="preserve">
<g>
	<g>
		<g>
			<path style="fill:#00E58B;" d="M424.486,80H86.72c-12.719,0-23.242,9.949-23.953,22.645L40.014,495.074
				C39.481,504.259,46.786,512,55.987,512h400.026c9.213,0,16.523-7.761,15.971-16.958l-23.545-392.393
				C447.728,89.949,437.205,80,424.486,80z"/>
		</g>
	</g>
	<g>
		<circle style="fill:#00BDBD;" cx="351.603" cy="152" r="24"/>
	</g>
	<g>
		<circle style="fill:#00BDBD;" cx="159.603" cy="152" r="24"/>
	</g>
	<g>
		<g>
			<path style="fill:#5C546A;" d="M255.603,0c57.344,0,104,46.652,104,104v48c0,4.418-3.578,8-8,8s-8-3.582-8-8v-48
				c0-48.523-39.477-88-88-88s-88,39.477-88,88v48c0,4.418-3.578,8-8,8s-8-3.582-8-8v-48C151.603,46.652,198.259,0,255.603,0z"/>
		</g>
	</g>
	<g>
		<polygon style="fill:#00BDBD;" points="44.651,416 466.555,416 456.842,248 54.364,248 		"/>
	</g>
</g>
<g>
</g>
<g>
</g>
<g>
</g>
<g>
</g>
<g>
</g>
<g>
</g>
<g>
</g>
<g>
</g>
<g>
</g>
<g>
</g>
<g>
</g>
<g>
</g>
<g>
</g>
<g>
</g>
<g>
</g>
</svg>
